<svg width="512" height="512" xmlns="http://www.w3.org/2000/svg">

 <g>
  <title>background</title>
  <rect fill="none" id="canvas_background" height="602" width="802" y="-1" x="-1"/>
 </g>
 <g>
  <title>Layer 1</title>
  <ellipse ry="241" rx="241" id="svg_8" cy="262.5" cx="263.5" stroke-opacity="null" stroke-width="null" stroke="null" fill="#003f7f"/>
  <path fill="#ffffff" stroke="null" id="svg_7" d="m255.5,1c-140.28537,0 -254.5,114.21463 -254.5,254.5s114.21463,254.49999 254.5,254.49999s254.49999,-114.21463 254.49999,-254.49999s-114.21463,-254.5 -254.49999,-254.5zm-187.46098,196.77195c0,-18.87025 15.27,-34.14025 34.14025,-34.14025s34.14024,15.27 34.14024,34.14025s-15.27,34.14024 -34.14024,34.14024s-34.14025,-15.27 -34.14025,-34.14024zm183.11585,158.65902l-17.50463,17.50463c-26.69146,26.69147 -69.89439,26.69147 -96.58585,0c-26.56732,-26.56731 -26.56732,-69.89438 0,-96.58585l52.63805,-52.63805c26.56731,-26.56731 69.89439,-26.56731 96.58585,0c7.32463,7.32464 7.32463,19.11854 0,26.31903c-7.32464,7.32463 -19.11854,7.32463 -26.31903,0c-12.04219,-12.0422 -31.78146,-12.0422 -43.9478,0l-52.63805,52.63805c-12.04219,12.04219 -12.04219,31.78146 0,43.9478c12.0422,12.0422 31.78147,12.0422 43.94781,0l17.50463,-17.50463c7.32463,-7.32464 19.11854,-7.32464 26.31902,0c7.20049,7.32463 7.20049,19.11853 0,26.31902zm-26.31902,-70.14268c-7.32463,-7.32464 -7.32463,-19.11854 0,-26.31903c7.32463,-7.32463 19.11854,-7.32463 26.31902,0c12.0422,12.0422 31.78147,12.0422 43.94781,0l52.63805,-52.63804c12.04219,-12.0422 12.04219,-31.78147 0,-43.94781c-12.0422,-12.04219 -31.78147,-12.04219 -43.94781,0l-17.50463,17.50464c-7.32464,7.32463 -19.11854,7.32463 -26.31903,0c-7.32463,-7.32464 -7.32463,-19.11854 0,-26.31903l17.50464,-17.50463c26.69146,-26.69147 69.89439,-26.69147 96.58585,0c26.56732,26.56731 26.56732,69.89439 0,96.58585l-52.76219,52.5139c-26.56732,26.69147 -69.89439,26.69147 -96.46171,0.12415zm159.77634,81.81244c-18.87024,0 -34.14024,-15.27 -34.14024,-34.14025c0,-18.87024 15.27,-34.14024 34.14024,-34.14024s34.14024,15.27 34.14024,34.14024c0,18.7461 -15.27,34.14025 -34.14024,34.14025zm46.55488,-60.45927c-18.87025,0 -34.14025,-15.27 -34.14025,-34.14024s15.27,-34.14025 34.14025,-34.14025s34.14024,15.27 34.14024,34.14025s-15.27,34.14024 -34.14024,34.14024z"/>
 </g>
</svg>